<svg width="165" height="242" viewBox="0 0 165 242" fill="none" xmlns="http://www.w3.org/2000/svg">
<path d="M147.682 15.0721C144.103 14.0991 144.842 17.4491 143.119 18.3331C132.445 19.7831 123.966 15.8031 114.431 17.0291C115.673 21.4451 123.839 22.3881 121.603 28.1141C116.517 31.0981 108.64 27.2931 105.302 32.0261C103.869 30.8501 102.63 29.4821 100.74 28.7651C92.291 30.6391 83.656 20.2311 74.007 18.3331C71.871 17.9131 70.372 18.9571 68.788 18.3331C65.236 16.9321 63.326 12.8111 60.315 10.5091C57.771 8.56611 54.777 9.08711 53.793 5.94411C53.793 5.94411 49.734 1.21611 47.166 0.976112C46.093 0.875112 45.041 0.813112 44.014 0.728112C29.811 -0.461888 14.967 0.0771121 0 0.460112L0.969 5.29211C3.649 11.7411 11.772 12.7481 15.314 18.3331C14.789 20.5021 10.682 21.5381 12.707 24.2021C13.824 27.2161 16.797 28.3701 19.878 29.4181C23.68 28.2201 25.577 25.1171 29.66 24.2021C34.133 24.4581 38.357 29.1841 43.353 29.4181C49.139 29.6871 53.018 26.6691 57.698 27.4611C64.715 28.6491 68.759 39.2911 76.606 32.6771C85.507 39.6411 99.248 41.7681 109.209 47.6741C109.03 53.3681 109.5 59.7031 107.25 63.3231C100.121 63.2581 87.905 64.4331 83.777 71.1471C82.865 74.4511 86.768 72.9381 86.384 75.7111C82.124 77.5361 83.282 84.7811 80.516 88.1001C83.622 91.0781 85.671 95.1151 89.647 97.2281C95.371 96.4311 97.65 92.1921 103.989 92.0121C108.47 95.7301 105.248 104.101 109.209 108.964C106.391 112.018 105.336 116.828 100.731 118.093C89.826 113.231 84.562 99.2361 71.387 98.5311C62.229 98.0401 52.895 105.828 42.047 101.791C38.179 92.8371 32.183 86.0101 23.139 82.2301C21.054 84.2081 16.318 86.5021 17.923 90.0541C19.234 92.2211 23.656 91.2761 25.747 92.6621C32.505 97.0691 28.08 112.465 36.179 113.527C39.084 113.908 41.368 110.577 44.656 110.266C51.475 109.621 60.03 115.941 68.78 112.874C72.277 115.247 75.055 118.336 77.91 121.351C79.473 124.89 85.335 127.258 84.431 131.129C72.195 130.066 56.47 119.696 46.614 126.567C47.51 138.698 51.395 151.171 54.438 162.429C55.237 165.39 57.126 166.518 57.046 168.95C56.993 170.561 55.218 173.185 54.438 175.471C53.334 178.697 53.449 182.696 52.481 184.6C50.809 187.886 45.38 188.362 45.962 193.076C46.49 196.006 51.61 195.196 53.133 193.727C53.605 196.08 55.87 196.642 59.002 196.333C63.188 190.071 60.534 183.786 65.523 177.425C79.855 173.632 65.242 166.532 63.565 157.864C62.114 150.352 64.659 146.444 62.915 141.562C81.122 145.743 95.499 153.75 112.468 159.168C109.396 171.23 109.943 182.652 114.425 193.072C118.841 203.338 128.716 210.276 130.073 218.5C132.105 230.808 121.292 240.727 108.556 235.455C102.741 233.049 97.553 217.133 108.556 215.24C109.799 216.719 107.09 221.774 111.164 221.761C120.043 215.478 110.44 209.171 103.338 211.979C98.851 213.753 95.773 221.069 96.817 227.63C99.627 245.247 127.543 246.7 135.287 231.54C141.498 205.257 115.168 195.021 119.641 167.643C120.299 163.605 123.018 161.851 123.551 156.558C128.74 150.423 135.095 141.781 137.897 133.083C138.284 131.88 137.473 129.603 137.897 127.868C138.438 125.646 140.286 124.474 140.504 122.653C140.767 120.458 139.345 118.34 139.201 115.479C138.965 110.814 141.035 105.234 140.504 101.135C139.722 95.0821 134.994 90.5331 134.636 84.1811C134.355 79.1721 136.652 73.7931 136.59 67.8811C136.525 61.1791 133.16 54.1421 135.941 47.6681C140.969 47.1441 146.491 49.7971 151.59 52.2321C156.134 54.4021 162.654 58.1901 163.977 62.0131C164 62.0831 164.011 62.1691 164.032 62.2451L163.329 40.4961C156.689 33.4171 149.779 26.6381 147.669 15.0581L147.682 15.0721ZM11.402 3.98811C23.455 5.18811 47.194 0.795113 49.22 15.7241C33.797 17.2181 21.219 10.2651 11.402 3.98811ZM124.202 73.7551C116.837 71.0751 120.667 53.9921 117.681 47.6731C120.355 47.6081 123.027 47.5461 124.855 48.3261C124.275 57.8781 126.305 66.0981 124.205 73.7551H124.202ZM130.722 28.7641C128.853 28.8931 127.16 28.8451 127.461 26.8091C128.601 27.4121 130.961 26.7871 130.721 28.7641H130.722ZM138.552 26.1561C138.745 23.9591 141.442 24.2651 141.814 22.2441C144.164 23.8061 146.789 25.0921 147.029 28.7641C141.709 29.9891 143.299 23.7241 138.559 26.1561H138.552Z" fill="#AA2B1D"/>
</svg>
